<svg width="24" height="24" xmlns="http://www.w3.org/2000/svg">
 <g>
  <title>Layer 1</title>
  <path fill="none" stroke="#000000" stroke-linecap="round" stroke-linejoin="round" stroke-width="2" d="m11.99006,11.99006c3.35924,0 6.08558,-2.4464 6.08558,-5.47702s-2.72634,-5.47702 -6.08558,-5.47702l0,10.95404l0,0zm0,0c0,3.35924 2.4464,6.08558 5.47702,6.08558s5.47702,-2.72634 5.47702,-6.08558l-10.95404,0l0,0zm0,0c-3.35924,0 -6.08558,2.4464 -6.08558,5.47702s2.72634,5.47702 6.08558,5.47702l0,-10.95404l0,0zm0,0c0,-3.35924 -2.4464,-6.08558 -5.47702,-6.08558s-5.47702,2.72634 -5.47702,6.08558l10.95404,0l0,0z" id="svg_1"/>
 </g>

</svg>